ffmpeg version 2.8.11-0ubuntu0.16.04.1 Copyright (c) 2000-2017 the FFmpeg developers
  built with gcc 5.4.0 (Ubuntu 5.4.0-6ubuntu1~16.04.4) 20160609
  configuration: --prefix=/usr --extra-version=0ubuntu0.16.04.1 --build-suffix=-ffmpeg --toolchain=hardened --libdir=/usr/lib/x86_64-linux-gnu --incdir=/usr/include/x86_64-linux-gnu --cc=cc --cxx=g++ --enable-gpl --enable-shared --disable-stripping --disable-decoder=libopenjpeg --disable-decoder=libschroedinger --enable-avresample --enable-avisynth --enable-gnutls --enable-ladspa --enable-libass --enable-libbluray --enable-libbs2b --enable-libcaca --enable-libcdio --enable-libflite --enable-libfontconfig --enable-libfreetype --enable-libfribidi --enable-libgme --enable-libgsm --enable-libmodplug --enable-libmp3lame --enable-libopenjpeg --enable-libopus --enable-libpulse --enable-librtmp --enable-libschroedinger --enable-libshine --enable-libsnappy --enable-libsoxr --enable-libspeex --enable-libssh --enable-libtheora --enable-libtwolame --enable-libvorbis --enable-libvpx --enable-libwavpack --enable-libwebp --enable-libx265 --enable-libxvid --enable-libzvbi --enable-openal --enable-opengl --enable-x11grab --enable-libdc1394 --enable-libiec61883 --enable-libzmq --enable-frei0r --enable-libx264 --enable-libopencv
  libavutil      54. 31.100 / 54. 31.100
  libavcodec     56. 60.100 / 56. 60.100
  libavformat    56. 40.101 / 56. 40.101
  libavdevice    56.  4.100 / 56.  4.100
  libavfilter     5. 40.101 /  5. 40.101
  libavresample   2.  1.  0 /  2.  1.  0
  libswscale      3.  1.101 /  3.  1.101
  libswresample   1.  2.101 /  1.  2.101
  libpostproc    53.  3.100 / 53.  3.100
[mp3 @ 0x16688c0] Unknown attached picture mimetype: ('image/png', None), skipping.
[mp3 @ 0x16688c0] Skipping 0 bytes of junk at 17522.
Input #0, mp3, from 'jan-andrzej-morsztyn-do-swoich-ksiazek-hola-juz-dosyc-dosyc-moja-ksiego.mp3':
  Metadata:
    title           : Jan Andrzej Morsztyn, Do swoich książek (Hola! Już dosyć, dosyć, moja księgo!)
    artist          : Piotr Głowacki
    album           : Wolne Lektury
    encoder         : Lavf53.21.0
    genre           : Speech
    originator_reference: 6yw#fdWr55baaaGk
    date            : 2008-09-26
    performer       : Jakub Kowalski
    album_artist    : Fundacja Nowoczesna Polska
    time_reference  : 24497715
    copyright       : 2008 Fundacja Nowoczesna Polska. Licensed to the public under http://creativecommons.org/licenses/by-sa/3.0/deed.pl verify at http://wolnelektury.pl/katalog/lektura/do-swoich-ksiazek-hola-juz-dosyc-dosyc-moja-ksiego/
    creation_time   : 0009-36-28
    encoded_by      : Pro Tools
    publisher       : Fundacja Nowoczesna Polska
  Duration: 00:00:55.54, start: 0.000000, bitrate: 66 kb/s
    Stream #0:0: Audio: mp3, 44100 Hz, mono, s16p, 64 kb/s
Output #0, null, to 'pipe:':
  Metadata:
    title           : Jan Andrzej Morsztyn, Do swoich książek (Hola! Już dosyć, dosyć, moja księgo!)
    artist          : Piotr Głowacki
    album           : Wolne Lektury
    publisher       : Fundacja Nowoczesna Polska
    genre           : Speech
    originator_reference: 6yw#fdWr55baaaGk
    date            : 2008-09-26
    performer       : Jakub Kowalski
    album_artist    : Fundacja Nowoczesna Polska
    time_reference  : 24497715
    copyright       : 2008 Fundacja Nowoczesna Polska. Licensed to the public under http://creativecommons.org/licenses/by-sa/3.0/deed.pl verify at http://wolnelektury.pl/katalog/lektura/do-swoich-ksiazek-hola-juz-dosyc-dosyc-moja-ksiego/
    encoded_by      : Pro Tools
    encoder         : Lavf56.40.101
    Stream #0:0: Audio: pcm_s16le, 44100 Hz, mono, s16, 705 kb/s
    Metadata:
      encoder         : Lavc56.60.100 pcm_s16le
Stream mapping:
  Stream #0:0 -> #0:0 (mp3 (native) -> pcm_s16le (native))
Press [q] to stop, [?] for help
[silencedetect @ 0x167ba60] silence_start: -0.00367347
[silencedetect @ 0x167ba60] silence_end: 0.809796 | silence_duration: 0.813469
[silencedetect @ 0x167ba60] silence_start: 2.26898
[silencedetect @ 0x167ba60] silence_end: 2.89959 | silence_duration: 0.630612
[silencedetect @ 0x167ba60] silence_start: 4.09755
[silencedetect @ 0x167ba60] silence_end: 6.89633 | silence_duration: 2.79878
[silencedetect @ 0x167ba60] silence_start: 9.71388
[silencedetect @ 0x167ba60] silence_end: 11.102 | silence_duration: 1.38816
[silencedetect @ 0x167ba60] silence_start: 13.162
[silencedetect @ 0x167ba60] silence_end: 14.3151 | silence_duration: 1.15306
[silencedetect @ 0x167ba60] silence_start: 16.2967
[silencedetect @ 0x167ba60] silence_end: 17.4237 | silence_duration: 1.12694
[silencedetect @ 0x167ba60] silence_start: 19.4314
[silencedetect @ 0x167ba60] silence_end: 21.1069 | silence_duration: 1.67551
[silencedetect @ 0x167ba60] silence_start: 23.5327
[silencedetect @ 0x167ba60] silence_end: 24.1894 | silence_duration: 0.656735
[silencedetect @ 0x167ba60] silence_start: 26.8502
[silencedetect @ 0x167ba60] silence_end: 28.3951 | silence_duration: 1.5449
[silencedetect @ 0x167ba60] silence_start: 28.8355
[silencedetect @ 0x167ba60] silence_end: 29.3878 | silence_duration: 0.552245
[silencedetect @ 0x167ba60] silence_start: 33.8771
[silencedetect @ 0x167ba60] silence_end: 35.2653 | silence_duration: 1.38816
[silencedetect @ 0x167ba60] silence_start: 41.2176
[silencedetect @ 0x167ba60] silence_end: 42.3706 | silence_duration: 1.15306
[silencedetect @ 0x167ba60] silence_start: 47.069
[silencedetect @ 0x167ba60] silence_end: 48.0653 | silence_duration: 0.996327
[silencedetect @ 0x167ba60] silence_start: 50.1253
[silencedetect @ 0x167ba60] silence_end: 51.3045 | silence_duration: 1.17918
[silencedetect @ 0x167ba60] silence_start: 53.2078
size=N/A time=00:00:55.53 bitrate=N/A    
video:0kB audio:4784kB subtitle:0kB other streams:0kB global headers:0kB muxing overhead: unknown
